STARTFONT 2.1
FONT -DEC-Terminal-Bold-R-Wide--18-180-75-75-C-140-iso8859-5
SIZE 18 75 75
FONTBOUNDINGBOX 14 20 0 -5

STARTPROPERTIES 24
FOUNDRY "Monotype"
FAMILY_NAME "VT"
WEIGHT_NAME "Bold"
SLANT "R"
SETWIDTH_NAME "Wide"
ADD_STYLE_NAME ""
PIXEL_SIZE 18
POINT_SIZE 180
RESOLUTION_X 75
RESOLUTION_Y 75
SPACING "C"
AVERAGE_WIDTH 140
CHARSET_REGISTRY "iso8859"
CHARSET_ENCODING "5"
FACE_NAME "VT Wide Bold ISO Latin Cyrillic"
_DEC_DEVICE_FONTNAMES "PS=vt-widebold-isolatincyrillic"
COPYRIGHT "Copyright (c) 1993 Monotype Typography Ltd."
CAP_HEIGHT 11
X_HEIGHT 8
WEIGHT 10
QUAD_WIDTH 14
DEFAULT_CHAR 160
FONT_DESCENT 5
FONT_ASCENT 15
ENDPROPERTIES

CHARS 191

STARTCHAR space
ENCODING 32
SWIDTH 723 0
DWIDTH 14 0
BBX 14 20 0 -5
BITMAP
0000
0000
0000
0000
0000
0000
0000
0000
0000
0000
0000
0000
0000
0000
0000
0000
0000
0000
0000
0000
ENDCHAR

STARTCHAR exclam
ENCODING 33
SWIDTH 723 0
DWIDTH 14 0
BBX 14 20 0 -5
BITMAP
0000
0000
0000
0000
0780
0780
0780
0780
0780
0780
0780
0000
0780
0FC0
0780
0000
0000
0000
0000
0000
ENDCHAR

STARTCHAR quotedbl
ENCODING 34
SWIDTH 723 0
DWIDTH 14 0
BBX 14 20 0 -5
BITMAP
0000
0000
0000
0000
1CE0
1CE0
1CE0
1CE0
1CE0
0000
0000
0000
0000
0000
0000
0000
0000
0000
0000
0000
ENDCHAR

STARTCHAR numbersign
ENCODING 35
SWIDTH 723 0
DWIDTH 14 0
BBX 14 20 0 -5
BITMAP
0000
0000
0000
0000
0E70
0E70
0E70
0E70
7FF8
7FF8
1CE0
1CE0
7FF8
7FF8
1CE0
1CE0
1CE0
0000
0000
0000
ENDCHAR

STARTCHAR dollar
ENCODING 36
SWIDTH 723 0
DWIDTH 14 0
BBX 14 20 0 -5
BITMAP
0000
0000
0000
0380
0380
1FD8
3FF8
7838
7800
3FC0
1FF0
0078
7078
7FF0
6FE0
0700
0700
0700
0000
0000
ENDCHAR

STARTCHAR percent
ENCODING 37
SWIDTH 723 0
DWIDTH 14 0
BBX 14 20 0 -5
BITMAP
0000
0000
0000
0000
3F00
F3C0
F3C0
3F1C
00FC
0FC0
FC00
E3F0
0F3C
0F3C
03F0
0000
0000
0000
0000
0000
ENDCHAR

STARTCHAR ampersand
ENCODING 38
SWIDTH 723 0
DWIDTH 14 0
BBX 14 20 0 -5
BITMAP
0000
0000
0000
0000
0760
1FE0
1E60
1E00
0700
1F00
7F98
79F8
79E0
7FF8
1E78
0000
0000
0000
0000
0000
ENDCHAR

STARTCHAR quoteright
ENCODING 39
SWIDTH 723 0
DWIDTH 14 0
BBX 14 20 0 -5
BITMAP
0000
0000
03C0
0780
0700
0E00
1C00
0000
0000
0000
0000
0000
0000
0000
0000
0000
0000
0000
0000
0000
ENDCHAR

STARTCHAR parenleft
ENCODING 40
SWIDTH 723 0
DWIDTH 14 0
BBX 14 20 0 -5
BITMAP
0000
0000
00E0
03C0
0780
0F00
0F00
1E00
1E00
1E00
1E00
1E00
1E00
0F00
0F00
0780
03C0
00E0
0000
0000
ENDCHAR

STARTCHAR parenright
ENCODING 41
SWIDTH 723 0
DWIDTH 14 0
BBX 14 20 0 -5
BITMAP
0000
0000
1C00
0F00
0780
03C0
03C0
01E0
01E0
01E0
01E0
01E0
01E0
03C0
03C0
0780
0F00
1C00
0000
0000
ENDCHAR

STARTCHAR asterisk
ENCODING 42
SWIDTH 723 0
DWIDTH 14 0
BBX 14 20 0 -5
BITMAP
0000
0000
0000
0000
0000
0000
0300
0300
3B70
3FF0
0780
1CE0
3870
0000
0000
0000
0000
0000
0000
0000
ENDCHAR

STARTCHAR plus
ENCODING 43
SWIDTH 723 0
DWIDTH 14 0
BBX 14 20 0 -5
BITMAP
0000
0000
0000
0000
0000
0000
0780
0780
0780
7FF8
7FF8
0780
0780
0780
0000
0000
0000
0000
0000
0000
ENDCHAR

STARTCHAR comma
ENCODING 44
SWIDTH 723 0
DWIDTH 14 0
BBX 14 20 0 -5
BITMAP
0000
0000
0000
0000
0000
0000
0000
0000
0000
0000
0000
0000
03C0
03C0
0780
0F00
0E00
0000
0000
0000
ENDCHAR

STARTCHAR minus
ENCODING 45
SWIDTH 723 0
DWIDTH 14 0
BBX 14 20 0 -5
BITMAP
0000
0000
0000
0000
0000
0000
0000
0000
0000
0000
1FE0
1FE0
0000
0000
0000
0000
0000
0000
0000
0000
ENDCHAR

STARTCHAR period
ENCODING 46
SWIDTH 723 0
DWIDTH 14 0
BBX 14 20 0 -5
BITMAP
0000
0000
0000
0000
0000
0000
0000
0000
0000
0000
0000
0000
0780
0FC0
0780
0000
0000
0000
0000
0000
ENDCHAR

STARTCHAR slash
ENCODING 47
SWIDTH 723 0
DWIDTH 14 0
BBX 14 20 0 -5
BITMAP
0000
0000
0000
0078
00F0
00F0
01E0
01E0
03C0
0780
0780
0F00
0F00
1E00
3C00
0000
0000
0000
0000
0000
ENDCHAR

STARTCHAR zero
ENCODING 48
SWIDTH 723 0
DWIDTH 14 0
BBX 14 20 0 -5
BITMAP
0000
0000
0000
0000
0FC0
3FF0
3CF0
7878
7878
7878
7878
7878
3CF0
3FF0
0FC0
0000
0000
0000
0000
0000
ENDCHAR

STARTCHAR one
ENCODING 49
SWIDTH 723 0
DWIDTH 14 0
BBX 14 20 0 -5
BITMAP
0000
0000
0000
0000
0780
7F80
7F80
0780
0780
0780
0780
0780
0780
7FF8
7FF8
0000
0000
0000
0000
0000
ENDCHAR

STARTCHAR two
ENCODING 50
SWIDTH 723 0
DWIDTH 14 0
BBX 14 20 0 -5
BITMAP
0000
0000
0000
0000
1FE0
7FF8
7078
6078
00F0
01F0
03C0
0F00
1E00
7FF8
7FF8
0000
0000
0000
0000
0000
ENDCHAR

STARTCHAR three
ENCODING 51
SWIDTH 723 0
DWIDTH 14 0
BBX 14 20 0 -5
BITMAP
0000
0000
0000
0000
1FE0
7FF8
7078
0078
07E0
07F8
0078
0078
7078
7FF8
1FE0
0000
0000
0000
0000
0000
ENDCHAR

STARTCHAR four
ENCODING 52
SWIDTH 723 0
DWIDTH 14 0
BBX 14 20 0 -5
BITMAP
0000
0000
0000
0000
01E0
03E0
07E0
0DE0
19E0
31E0
7FF8
7FF8
01E0
1FF8
1FF8
0000
0000
0000
0000
0000
ENDCHAR

STARTCHAR five
ENCODING 53
SWIDTH 723 0
DWIDTH 14 0
BBX 14 20 0 -5
BITMAP
0000
0000
0000
0000
7FF8
7FF8
7800
7800
7FE0
7FF8
0078
0078
7078
7FF0
1FE0
0000
0000
0000
0000
0000
ENDCHAR

STARTCHAR six
ENCODING 54
SWIDTH 723 0
DWIDTH 14 0
BBX 14 20 0 -5
BITMAP
0000
0000
0000
0000
03F8
0FF8
1F00
3C00
3FE0
7FF0
7878
7878
7878
3FF0
1FE0
0000
0000
0000
0000
0000
ENDCHAR

STARTCHAR seven
ENCODING 55
SWIDTH 723 0
DWIDTH 14 0
BBX 14 20 0 -5
BITMAP
0000
0000
0000
0000
7FF8
7FF8
6078
0070
00F0
00E0
01E0
01C0
03C0
0380
0780
0000
0000
0000
0000
0000
ENDCHAR

STARTCHAR eight
ENCODING 56
SWIDTH 723 0
DWIDTH 14 0
BBX 14 20 0 -5
BITMAP
0000
0000
0000
0000
1FE0
7FF8
7878
7878
1FE0
7FF8
7878
7878
7878
7FF8
1FE0
0000
0000
0000
0000
0000
ENDCHAR

STARTCHAR nine
ENCODING 57
SWIDTH 723 0
DWIDTH 14 0
BBX 14 20 0 -5
BITMAP
0000
0000
0000
0000
1FE0
3FF0
7878
7878
7878
3FF8
1FF8
00F0
03F0
7FE0
7F80
0000
0000
0000
0000
0000
ENDCHAR

STARTCHAR colon
ENCODING 58
SWIDTH 723 0
DWIDTH 14 0
BBX 14 20 0 -5
BITMAP
0000
0000
0000
0000
0000
0000
0000
0780
0FC0
0780
0000
0000
0780
0FC0
0780
0000
0000
0000
0000
0000
ENDCHAR

STARTCHAR semicolon
ENCODING 59
SWIDTH 723 0
DWIDTH 14 0
BBX 14 20 0 -5
BITMAP
0000
0000
0000
0000
0000
0000
0000
0780
0FC0
0780
0000
0000
0780
0780
0F00
1E00
1C00
0000
0000
0000
ENDCHAR

STARTCHAR less
ENCODING 60
SWIDTH 723 0
DWIDTH 14 0
BBX 14 20 0 -5
BITMAP
0000
0000
0000
0000
0018
0078
01F8
07E0
1F80
7E00
1F80
07E0
01F8
0078
0018
0000
0000
0000
0000
0000
ENDCHAR

STARTCHAR equal
ENCODING 61
SWIDTH 723 0
DWIDTH 14 0
BBX 14 20 0 -5
BITMAP
0000
0000
0000
0000
0000
0000
0000
7FF8
7FF8
0000
0000
7FF8
7FF8
0000
0000
0000
0000
0000
0000
0000
ENDCHAR

STARTCHAR greater
ENCODING 62
SWIDTH 723 0
DWIDTH 14 0
BBX 14 20 0 -5
BITMAP
0000
0000
0000
0000
6000
7800
7E00
1F80
07E0
01F8
07E0
1F80
7E00
7800
6000
0000
0000
0000
0000
0000
ENDCHAR

STARTCHAR question
ENCODING 63
SWIDTH 723 0
DWIDTH 14 0
BBX 14 20 0 -5
BITMAP
0000
0000
0000
0000
1FF0
7FF8
7078
01F8
03E0
0780
0780
0000
0780
0FC0
0780
0000
0000
0000
0000
0000
ENDCHAR

STARTCHAR at
ENCODING 64
SWIDTH 723 0
DWIDTH 14 0
BBX 14 20 0 -5
BITMAP
0000
0000
0000
1FE0
3FF0
7870
7070
73F0
77F0
7770
7770
77F8
73D8
7000
7018
3FF8
1FE0
0000
0000
0000
ENDCHAR

STARTCHAR A
ENCODING 65
SWIDTH 723 0
DWIDTH 14 0
BBX 14 20 0 -5
BITMAP
0000
0000
0000
0000
0780
0FC0
1FE0
3CF0
7878
7878
7FF8
7FF8
7878
7878
7878
0000
0000
0000
0000
0000
ENDCHAR

STARTCHAR B
ENCODING 66
SWIDTH 723 0
DWIDTH 14 0
BBX 14 20 0 -5
BITMAP
0000
0000
0000
0000
7FE0
7FF0
7878
7878
7FF0
7FE0
7878
7878
7878
7FF8
7FE0
0000
0000
0000
0000
0000
ENDCHAR

STARTCHAR C
ENCODING 67
SWIDTH 723 0
DWIDTH 14 0
BBX 14 20 0 -5
BITMAP
0000
0000
0000
0000
0FD8
3FF8
3C38
7838
7800
7800
7800
7800
3C38
3FF8
0FE0
0000
0000
0000
0000
0000
ENDCHAR

STARTCHAR D
ENCODING 68
SWIDTH 723 0
DWIDTH 14 0
BBX 14 20 0 -5
BITMAP
0000
0000
0000
0000
7FC0
7FF0
78F0
7878
7878
7878
7878
7878
78F0
7FF0
7FC0
0000
0000
0000
0000
0000
ENDCHAR

STARTCHAR E
ENCODING 69
SWIDTH 723 0
DWIDTH 14 0
BBX 14 20 0 -5
BITMAP
0000
0000
0000
0000
7FF8
7FF8
7800
7800
7FE0
7FE0
7800
7800
7800
7FF8
7FF8
0000
0000
0000
0000
0000
ENDCHAR

STARTCHAR F
ENCODING 70
SWIDTH 723 0
DWIDTH 14 0
BBX 14 20 0 -5
BITMAP
0000
0000
0000
0000
7FF8
7FF8
7800
7800
7FE0
7FE0
7800
7800
7800
7800
7800
0000
0000
0000
0000
0000
ENDCHAR

STARTCHAR G
ENCODING 71
SWIDTH 723 0
DWIDTH 14 0
BBX 14 20 0 -5
BITMAP
0000
0000
0000
0000
0FD8
3FF8
3C38
7838
7800
79F8
79F8
7878
3C78
3FF8
0FE0
0000
0000
0000
0000
0000
ENDCHAR

STARTCHAR H
ENCODING 72
SWIDTH 723 0
DWIDTH 14 0
BBX 14 20 0 -5
BITMAP
0000
0000
0000
0000
7878
7878
7878
7878
7FF8
7FF8
7878
7878
7878
7878
7878
0000
0000
0000
0000
0000
ENDCHAR

STARTCHAR I
ENCODING 73
SWIDTH 723 0
DWIDTH 14 0
BBX 14 20 0 -5
BITMAP
0000
0000
0000
0000
7FF8
7FF8
0780
0780
0780
0780
0780
0780
0780
7FF8
7FF8
0000
0000
0000
0000
0000
ENDCHAR

STARTCHAR J
ENCODING 74
SWIDTH 723 0
DWIDTH 14 0
BBX 14 20 0 -5
BITMAP
0000
0000
0000
0000
1FF8
1FF8
01E0
01E0
01E0
01E0
71E0
71E0
79E0
7FC0
1F80
0000
0000
0000
0000
0000
ENDCHAR

STARTCHAR K
ENCODING 75
SWIDTH 723 0
DWIDTH 14 0
BBX 14 20 0 -5
BITMAP
0000
0000
0000
0000
7878
78F8
79E0
7BC0
7F80
7F80
7FE0
79E0
78F0
7878
7878
0000
0000
0000
0000
0000
ENDCHAR

STARTCHAR L
ENCODING 76
SWIDTH 723 0
DWIDTH 14 0
BBX 14 20 0 -5
BITMAP
0000
0000
0000
0000
7F80
7F80
1E00
1E00
1E00
1E00
1E00
1E18
1E18
7FF8
7FF8
0000
0000
0000
0000
0000
ENDCHAR

STARTCHAR M
ENCODING 77
SWIDTH 723 0
DWIDTH 14 0
BBX 14 20 0 -5
BITMAP
0000
0000
0000
0000
7038
7878
7878
7CF8
7CF8
77B8
7B78
7B78
7878
7878
7878
0000
0000
0000
0000
0000
ENDCHAR

STARTCHAR N
ENCODING 78
SWIDTH 723 0
DWIDTH 14 0
BBX 14 20 0 -5
BITMAP
0000
0000
0000
0000
7878
7C78
7C78
7E78
7E78
7B78
7BF8
79F8
79F8
78F8
7878
0000
0000
0000
0000
0000
ENDCHAR

STARTCHAR O
ENCODING 79
SWIDTH 723 0
DWIDTH 14 0
BBX 14 20 0 -5
BITMAP
0000
0000
0000
0000
0FC0
3FF0
3CF0
7878
7878
7878
7878
7878
3CF0
3FF0
0FC0
0000
0000
0000
0000
0000
ENDCHAR

STARTCHAR P
ENCODING 80
SWIDTH 723 0
DWIDTH 14 0
BBX 14 20 0 -5
BITMAP
0000
0000
0000
0000
7FE0
7FF8
7878
7878
7878
7FF8
7FE0
7800
7800
7E00
7E00
0000
0000
0000
0000
0000
ENDCHAR

STARTCHAR Q
ENCODING 81
SWIDTH 723 0
DWIDTH 14 0
BBX 14 20 0 -5
BITMAP
0000
0000
0000
0000
0FC0
3FF0
3CF0
7878
7878
7878
7878
7878
3CF0
3FF0
0FC0
1C00
3F18
77F8
61F0
0000
ENDCHAR

STARTCHAR R
ENCODING 82
SWIDTH 723 0
DWIDTH 14 0
BBX 14 20 0 -5
BITMAP
0000
0000
0000
0000
7FE0
7FF0
7878
7878
7878
7FF0
7FC0
79E0
78E0
78F8
7878
0000
0000
0000
0000
0000
ENDCHAR

STARTCHAR S
ENCODING 83
SWIDTH 723 0
DWIDTH 14 0
BBX 14 20 0 -5
BITMAP
0000
0000
0000
0000
1FB8
7FF8
7878
7800
7F00
3FE0
07F8
0078
7078
7FF8
6FE0
0000
0000
0000
0000
0000
ENDCHAR

STARTCHAR T
ENCODING 84
SWIDTH 723 0
DWIDTH 14 0
BBX 14 20 0 -5
BITMAP
0000
0000
0000
0000
7FF8
7FF8
6798
6798
0780
0780
0780
0780
0780
1FE0
1FE0
0000
0000
0000
0000
0000
ENDCHAR

STARTCHAR U
ENCODING 85
SWIDTH 723 0
DWIDTH 14 0
BBX 14 20 0 -5
BITMAP
0000
0000
0000
0000
7878
7878
7878
7878
7878
7878
7878
7878
7CF8
3FF0
1FE0
0000
0000
0000
0000
0000
ENDCHAR

STARTCHAR V
ENCODING 86
SWIDTH 723 0
DWIDTH 14 0
BBX 14 20 0 -5
BITMAP
0000
0000
0000
0000
7878
7878
7878
7878
7878
7878
3870
3CF0
1FE0
0FC0
0780
0000
0000
0000
0000
0000
ENDCHAR

STARTCHAR W
ENCODING 87
SWIDTH 723 0
DWIDTH 14 0
BBX 14 20 0 -5
BITMAP
0000
0000
0000
0000
7878
7878
7878
7878
7B78
7B78
7FF8
7CF8
3870
3870
3030
0000
0000
0000
0000
0000
ENDCHAR

STARTCHAR X
ENCODING 88
SWIDTH 723 0
DWIDTH 14 0
BBX 14 20 0 -5
BITMAP
0000
0000
0000
0000
7878
7878
3CF0
1FE0
0FC0
0780
0FC0
1FE0
3CF0
7878
7878
0000
0000
0000
0000
0000
ENDCHAR

STARTCHAR Y
ENCODING 89
SWIDTH 723 0
DWIDTH 14 0
BBX 14 20 0 -5
BITMAP
0000
0000
0000
0000
7878
7878
3CF0
1FE0
1FE0
0FC0
0780
0780
0780
1FE0
1FE0
0000
0000
0000
0000
0000
ENDCHAR

STARTCHAR Z
ENCODING 90
SWIDTH 723 0
DWIDTH 14 0
BBX 14 20 0 -5
BITMAP
0000
0000
0000
0000
7FF8
7FF8
60F0
61E0
03C0
0780
0F00
1E18
3C18
7FF8
7FF8
0000
0000
0000
0000
0000
ENDCHAR

STARTCHAR bracketleft
ENCODING 91
SWIDTH 723 0
DWIDTH 14 0
BBX 14 20 0 -5
BITMAP
0000
0000
0FC0
0FC0
0F00
0F00
0F00
0F00
0F00
0F00
0F00
0F00
0F00
0F00
0F00
0F00
0FC0
0FC0
0000
0000
ENDCHAR

STARTCHAR backslash
ENCODING 92
SWIDTH 723 0
DWIDTH 14 0
BBX 14 20 0 -5
BITMAP
0000
0000
0000
F000
7800
7800
3C00
3C00
1E00
0F00
0F00
0780
0780
03C0
01E0
0000
0000
0000
0000
0000
ENDCHAR

STARTCHAR bracketright
ENCODING 93
SWIDTH 723 0
DWIDTH 14 0
BBX 14 20 0 -5
BITMAP
0000
0000
0FC0
0FC0
03C0
03C0
03C0
03C0
03C0
03C0
03C0
03C0
03C0
03C0
03C0
03C0
0FC0
0FC0
0000
0000
ENDCHAR

STARTCHAR asciicircum
ENCODING 94
SWIDTH 723 0
DWIDTH 14 0
BBX 14 20 0 -5
BITMAP
0000
0000
0780
1FE0
7878
6018
0000
0000
0000
0000
0000
0000
0000
0000
0000
0000
0000
0000
0000
0000
ENDCHAR

STARTCHAR underscore
ENCODING 95
SWIDTH 723 0
DWIDTH 14 0
BBX 14 20 0 -5
BITMAP
0000
0000
0000
0000
0000
0000
0000
0000
0000
0000
0000
0000
0000
0000
0000
FFFC
FFFC
0000
0000
0000
ENDCHAR

STARTCHAR quoteleft
ENCODING 96
SWIDTH 723 0
DWIDTH 14 0
BBX 14 20 0 -5
BITMAP
0000
0000
1E00
0F00
0780
03C0
0000
0000
0000
0000
0000
0000
0000
0000
0000
0000
0000
0000
0000
0000
ENDCHAR

STARTCHAR a
ENCODING 97
SWIDTH 723 0
DWIDTH 14 0
BBX 14 20 0 -5
BITMAP
0000
0000
0000
0000
0000
0000
1FF0
3FF8
0078
3FF8
7FF8
7878
7878
7FF8
3F78
0000
0000
0000
0000
0000
ENDCHAR

STARTCHAR b
ENCODING 98
SWIDTH 723 0
DWIDTH 14 0
BBX 14 20 0 -5
BITMAP
0000
0000
0000
7800
7800
7800
7BE0
7FF0
7FF8
7C78
7878
7878
7C78
7FF0
7BE0
0000
0000
0000
0000
0000
ENDCHAR

STARTCHAR c
ENCODING 99
SWIDTH 723 0
DWIDTH 14 0
BBX 14 20 0 -5
BITMAP
0000
0000
0000
0000
0000
0000
1FD8
3FF8
7878
7838
7800
7800
7838
3FF8
1FE0
0000
0000
0000
0000
0000
ENDCHAR

STARTCHAR d
ENCODING 100
SWIDTH 723 0
DWIDTH 14 0
BBX 14 20 0 -5
BITMAP
0000
0000
0000
0078
0078
0078
1F78
3FF8
78F8
7878
7878
7878
78F8
3FF8
1F78
0000
0000
0000
0000
0000
ENDCHAR

STARTCHAR e
ENCODING 101
SWIDTH 723 0
DWIDTH 14 0
BBX 14 20 0 -5
BITMAP
0000
0000
0000
0000
0000
0000
1FE0
3FF0
7878
7FF8
7FF8
7800
7838
3FF8
1FE0
0000
0000
0000
0000
0000
ENDCHAR

STARTCHAR f
ENCODING 102
SWIDTH 723 0
DWIDTH 14 0
BBX 14 20 0 -5
BITMAP
0000
0000
0000
07F0
0FF8
0F00
0F00
7FF8
7FF8
0F00
0F00
0F00
0F00
7FF8
7FF8
0000
0000
0000
0000
0000
ENDCHAR

STARTCHAR g
ENCODING 103
SWIDTH 723 0
DWIDTH 14 0
BBX 14 20 0 -5
BITMAP
0000
0000
0000
0000
0000
0000
1F78
3FF8
78F8
7878
7878
7878
78F8
3FF8
1F78
0078
7FF0
7FE0
0000
0000
ENDCHAR

STARTCHAR h
ENCODING 104
SWIDTH 723 0
DWIDTH 14 0
BBX 14 20 0 -5
BITMAP
0000
0000
0000
7800
7800
7800
7BE0
7FF0
7C78
7878
7878
7878
7878
7878
7878
0000
0000
0000
0000
0000
ENDCHAR

STARTCHAR i
ENCODING 105
SWIDTH 723 0
DWIDTH 14 0
BBX 14 20 0 -5
BITMAP
0000
0000
0780
0780
0780
0000
3F80
3F80
0780
0780
0780
0780
0780
7FF8
7FF8
0000
0000
0000
0000
0000
ENDCHAR

STARTCHAR j
ENCODING 106
SWIDTH 723 0
DWIDTH 14 0
BBX 14 20 0 -5
BITMAP
0000
0000
01E0
01E0
01E0
0000
0FE0
0FE0
01E0
01E0
01E0
01E0
01E0
01E0
01E0
01E0
01E0
1FE0
1F80
0000
ENDCHAR

STARTCHAR k
ENCODING 107
SWIDTH 723 0
DWIDTH 14 0
BBX 14 20 0 -5
BITMAP
0000
0000
0000
7800
7800
7800
7878
78F8
79E0
7BC0
7F80
7FC0
79E0
78F8
7878
0000
0000
0000
0000
0000
ENDCHAR

STARTCHAR l
ENCODING 108
SWIDTH 723 0
DWIDTH 14 0
BBX 14 20 0 -5
BITMAP
0000
0000
0000
1F80
1F80
0780
0780
0780
0780
0780
0780
0780
0780
7FF8
7FF8
0000
0000
0000
0000
0000
ENDCHAR

STARTCHAR m
ENCODING 109
SWIDTH 723 0
DWIDTH 14 0
BBX 14 20 0 -5
BITMAP
0000
0000
0000
0000
0000
0000
DEF0
FFF8
E738
E738
E738
E738
E738
E738
E738
0000
0000
0000
0000
0000
ENDCHAR

STARTCHAR n
ENCODING 110
SWIDTH 723 0
DWIDTH 14 0
BBX 14 20 0 -5
BITMAP
0000
0000
0000
0000
0000
0000
79F0
7FF8
7C78
7878
7878
7878
7878
7878
7878
0000
0000
0000
0000
0000
ENDCHAR

STARTCHAR o
ENCODING 111
SWIDTH 723 0
DWIDTH 14 0
BBX 14 20 0 -5
BITMAP
0000
0000
0000
0000
0000
0000
1FE0
3FF0
7878
7878
7878
7878
7878
3FF0
1FE0
0000
0000
0000
0000
0000
ENDCHAR

STARTCHAR p
ENCODING 112
SWIDTH 723 0
DWIDTH 14 0
BBX 14 20 0 -5
BITMAP
0000
0000
0000
0000
0000
0000
7BE0
7FF0
7C78
7878
7878
7878
7C78
7FF0
7BE0
7800
7800
FE00
FE00
0000
ENDCHAR

STARTCHAR q
ENCODING 113
SWIDTH 723 0
DWIDTH 14 0
BBX 14 20 0 -5
BITMAP
0000
0000
0000
0000
0000
0000
1F78
3FF8
78F8
7878
7878
7878
78F8
3FF8
1F78
0078
0078
03F8
03F8
0000
ENDCHAR

STARTCHAR r
ENCODING 114
SWIDTH 723 0
DWIDTH 14 0
BBX 14 20 0 -5
BITMAP
0000
0000
0000
0000
0000
0000
7CF8
7FFC
1F1C
1E00
1E00
1E00
1E00
7FE0
7FE0
0000
0000
0000
0000
0000
ENDCHAR

STARTCHAR s
ENCODING 115
SWIDTH 723 0
DWIDTH 14 0
BBX 14 20 0 -5
BITMAP
0000
0000
0000
0000
0000
0000
3FD8
7FF8
7838
7F00
3FE0
03F8
6078
7FF8
7FF0
0000
0000
0000
0000
0000
ENDCHAR

STARTCHAR t
ENCODING 116
SWIDTH 723 0
DWIDTH 14 0
BBX 14 20 0 -5
BITMAP
0000
0000
0000
1E00
1E00
1E00
7FF8
7FF8
1E00
1E00
1E00
1E00
1E38
0FF8
07F0
0000
0000
0000
0000
0000
ENDCHAR

STARTCHAR u
ENCODING 117
SWIDTH 723 0
DWIDTH 14 0
BBX 14 20 0 -5
BITMAP
0000
0000
0000
0000
0000
0000
7878
7878
7878
7878
7878
7878
78F8
3FF8
1F78
0000
0000
0000
0000
0000
ENDCHAR

STARTCHAR v
ENCODING 118
SWIDTH 723 0
DWIDTH 14 0
BBX 14 20 0 -5
BITMAP
0000
0000
0000
0000
0000
0000
7878
7878
3870
3CF0
1CE0
1FE0
0FC0
0FC0
0780
0000
0000
0000
0000
0000
ENDCHAR

STARTCHAR w
ENCODING 119
SWIDTH 723 0
DWIDTH 14 0
BBX 14 20 0 -5
BITMAP
0000
0000
0000
0000
0000
0000
F03C
F03C
F33C
F33C
F33C
77B8
7CF8
3CF0
3870
0000
0000
0000
0000
0000
ENDCHAR

STARTCHAR x
ENCODING 120
SWIDTH 723 0
DWIDTH 14 0
BBX 14 20 0 -5
BITMAP
0000
0000
0000
0000
0000
0000
7878
7CF8
1FE0
0FC0
0780
0FC0
1FE0
7CF8
7878
0000
0000
0000
0000
0000
ENDCHAR

STARTCHAR y
ENCODING 121
SWIDTH 723 0
DWIDTH 14 0
BBX 14 20 0 -5
BITMAP
0000
0000
0000
0000
0000
0000
7878
7878
3870
3CF0
1CE0
1CE0
0FC0
0FC0
0780
0780
0700
7FE0
7FE0
0000
ENDCHAR

STARTCHAR z
ENCODING 122
SWIDTH 723 0
DWIDTH 14 0
BBX 14 20 0 -5
BITMAP
0000
0000
0000
0000
0000
0000
7FF8
7FF8
00F0
01E0
07C0
0F00
1E00
7FF8
7FF8
0000
0000
0000
0000
0000
ENDCHAR

STARTCHAR braceleft
ENCODING 123
SWIDTH 723 0
DWIDTH 14 0
BBX 14 20 0 -5
BITMAP
0000
0000
01E0
03E0
0380
0380
0380
0380
0780
1F00
0780
0380
0380
0380
0380
0380
03E0
01E0
0000
0000
ENDCHAR

STARTCHAR bar
ENCODING 124
SWIDTH 723 0
DWIDTH 14 0
BBX 14 20 0 -5
BITMAP
0000
0000
0780
0780
0780
0780
0780
0780
0780
0780
0780
0780
0780
0780
0780
0780
0780
0000
0000
0000
ENDCHAR

STARTCHAR braceright
ENCODING 125
SWIDTH 723 0
DWIDTH 14 0
BBX 14 20 0 -5
BITMAP
0000
0000
1E00
1F00
0700
0700
0700
0700
0780
03E0
0780
0700
0700
0700
0700
0700
1F00
1E00
0000
0000
ENDCHAR

STARTCHAR asciitilde
ENCODING 126
SWIDTH 723 0
DWIDTH 14 0
BBX 14 20 0 -5
BITMAP
0000
0000
3E18
7FF8
61F0
0000
0000
0000
0000
0000
0000
0000
0000
0000
0000
0000
0000
0000
0000
0000
ENDCHAR

STARTCHAR space
ENCODING 160
SWIDTH 723 0
DWIDTH 14 0
BBX 14 20 0 -5
BITMAP
0000
0000
0000
0000
0000
0000
0000
0000
0000
0000
0000
0000
0000
0000
0000
0000
0000
0000
0000
0000
ENDCHAR

STARTCHAR afii10023
ENCODING 161
SWIDTH 723 0
DWIDTH 14 0
BBX 14 20 0 -5
BITMAP
3030
7878
3030
0000
7FF8
7FF8
7800
7800
7FE0
7FE0
7800
7800
7800
7FF8
7FF8
0000
0000
0000
0000
0000
ENDCHAR

STARTCHAR afii10051
ENCODING 162
SWIDTH 723 0
DWIDTH 14 0
BBX 14 20 0 -5
BITMAP
0000
0000
0000
0000
FFF0
FFF0
CF30
0F00
0F78
0FFC
0FBC
0F3C
0F3C
0F7C
0F78
0000
0000
0000
0000
0000
ENDCHAR

STARTCHAR afii10052
ENCODING 163
SWIDTH 723 0
DWIDTH 14 0
BBX 14 20 0 -5
BITMAP
01E0
0780
1E00
0000
FFF8
FFF8
3C18
3C18
3C00
3C00
3C00
3C00
3C00
FF00
FF00
0000
0000
0000
0000
0000
ENDCHAR

STARTCHAR afii10053
ENCODING 164
SWIDTH 723 0
DWIDTH 14 0
BBX 14 20 0 -5
BITMAP
0000
0000
0000
0000
0FD8
3FF8
3C38
7838
7F00
7F00
7800
7800
3C38
3FF8
0FE0
0000
0000
0000
0000
0000
ENDCHAR

STARTCHAR afii10054
ENCODING 165
SWIDTH 723 0
DWIDTH 14 0
BBX 14 20 0 -5
BITMAP
0000
0000
0000
0000
1FB8
7FF8
7878
7800
7F00
3FE0
07F8
0078
7078
7FF8
6FE0
0000
0000
0000
0000
0000
ENDCHAR

STARTCHAR afii10055
ENCODING 166
SWIDTH 723 0
DWIDTH 14 0
BBX 14 20 0 -5
BITMAP
0000
0000
0000
0000
7FF8
7FF8
0780
0780
0780
0780
0780
0780
0780
7FF8
7FF8
0000
0000
0000
0000
0000
ENDCHAR

STARTCHAR afii10056
ENCODING 167
SWIDTH 723 0
DWIDTH 14 0
BBX 14 20 0 -5
BITMAP
3030
7878
3030
0000
7FF8
7FF8
0780
0780
0780
0780
0780
0780
0780
7FF8
7FF8
0000
0000
0000
0000
0000
ENDCHAR

STARTCHAR afii10057
ENCODING 168
SWIDTH 723 0
DWIDTH 14 0
BBX 14 20 0 -5
BITMAP
0000
0000
0000
0000
1FF8
1FF8
01E0
01E0
01E0
01E0
71E0
71E0
79E0
7FC0
1F80
0000
0000
0000
0000
0000
ENDCHAR

STARTCHAR afii10058
ENCODING 169
SWIDTH 723 0
DWIDTH 14 0
BBX 14 20 0 -5
BITMAP
0000
0000
0000
0000
7F80
7F80
7380
7380
7380
73F8
73FC
739C
739C
F3FC
E3F8
0000
0000
0000
0000
0000
ENDCHAR

STARTCHAR afii10059
ENCODING 170
SWIDTH 723 0
DWIDTH 14 0
BBX 14 20 0 -5
BITMAP
0000
0000
0000
0000
7380
7380
7380
7380
7380
7FF8
7FFC
739C
739C
73FC
73F8
0000
0000
0000
0000
0000
ENDCHAR

STARTCHAR afii10060
ENCODING 171
SWIDTH 723 0
DWIDTH 14 0
BBX 14 20 0 -5
BITMAP
0000
0000
0000
0000
FFC0
FFC0
DEC0
1E00
1EF0
1FF8
1F78
1E78
1E78
1E78
1E78
0000
0000
0000
0000
0000
ENDCHAR

STARTCHAR afii10061
ENCODING 172
SWIDTH 723 0
DWIDTH 14 0
BBX 14 20 0 -5
BITMAP
00F0
03C0
0F00
0000
3C78
3CF8
3CE0
3DC0
3F80
3FC0
3DE0
3CF0
3C70
3C78
3C38
0000
0000
0000
0000
0000
ENDCHAR

STARTCHAR hyphen
ENCODING 173
SWIDTH 723 0
DWIDTH 14 0
BBX 14 20 0 -5
BITMAP
0000
0000
0000
0000
0000
0000
0000
0000
0000
7FF8
7FF8
0000
0000
0000
0000
0000
0000
0000
0000
0000
ENDCHAR

STARTCHAR afii10062
ENCODING 174
SWIDTH 723 0
DWIDTH 14 0
BBX 14 20 0 -5
BITMAP
18C0
1DC0
0F80
0000
7878
7878
38F0
3CE0
1CE0
1DC0
0FC0
0F80
0700
1F00
1E00
0000
0000
0000
0000
0000
ENDCHAR

STARTCHAR afii10145
ENCODING 175
SWIDTH 723 0
DWIDTH 14 0
BBX 14 20 0 -5
BITMAP
0000
0000
0000
0000
7878
7878
7878
7878
7878
7878
7878
7878
7878
7FF8
7FF8
0300
0300
0300
0000
0000
ENDCHAR

STARTCHAR afii10017
ENCODING 176
SWIDTH 723 0
DWIDTH 14 0
BBX 14 20 0 -5
BITMAP
0000
0000
0000
0000
0780
0FC0
1FE0
3CF0
7878
7878
7FF8
7FF8
7878
7878
7878
0000
0000
0000
0000
0000
ENDCHAR

STARTCHAR afii10018
ENCODING 177
SWIDTH 723 0
DWIDTH 14 0
BBX 14 20 0 -5
BITMAP
0000
0000
0000
0000
7FF0
7FF0
7800
7800
7FE0
7FF8
7878
7878
7878
7FF8
7FE0
0000
0000
0000
0000
0000
ENDCHAR

STARTCHAR afii10019
ENCODING 178
SWIDTH 723 0
DWIDTH 14 0
BBX 14 20 0 -5
BITMAP
0000
0000
0000
0000
7FE0
7FF0
7878
7878
7FF0
7FE0
7878
7878
7878
7FF8
7FE0
0000
0000
0000
0000
0000
ENDCHAR

STARTCHAR afii10020
ENCODING 179
SWIDTH 723 0
DWIDTH 14 0
BBX 14 20 0 -5
BITMAP
0000
0000
0000
0000
FFF8
FFF8
3C18
3C18
3C00
3C00
3C00
3C00
3C00
FF00
FF00
0000
0000
0000
0000
0000
ENDCHAR

STARTCHAR afii10021
ENCODING 180
SWIDTH 723 0
DWIDTH 14 0
BBX 14 20 0 -5
BITMAP
0000
0000
0000
0000
3FFC
3FFC
0E70
0E70
0E70
0E70
0E70
1C70
1C70
3FF0
FFF8
E03C
E01C
E01C
0000
0000
ENDCHAR

STARTCHAR afii10022
ENCODING 181
SWIDTH 723 0
DWIDTH 14 0
BBX 14 20 0 -5
BITMAP
0000
0000
0000
0000
7FF8
7FF8
7800
7800
7FE0
7FE0
7800
7800
7800
7FF8
7FF8
0000
0000
0000
0000
0000
ENDCHAR

STARTCHAR afii10024
ENCODING 182
SWIDTH 723 0
DWIDTH 14 0
BBX 14 20 0 -5
BITMAP
0000
0000
0000
0000
E738
F778
3760
3FE0
1FC0
1FC0
3FE0
3760
7770
E738
E738
0000
0000
0000
0000
0000
ENDCHAR

STARTCHAR afii10025
ENCODING 183
SWIDTH 723 0
DWIDTH 14 0
BBX 14 20 0 -5
BITMAP
0000
0000
0000
0000
6FE0
7FF8
7078
6078
07E0
07F8
0078
0078
7078
7FF8
1FE0
0000
0000
0000
0000
0000
ENDCHAR

STARTCHAR afii10026
ENCODING 184
SWIDTH 723 0
DWIDTH 14 0
BBX 14 20 0 -5
BITMAP
0000
0000
0000
0000
7878
78F8
78F8
79F8
79F8
7B78
7F78
7E78
7E78
7C78
7878
0000
0000
0000
0000
0000
ENDCHAR

STARTCHAR afii10027
ENCODING 185
SWIDTH 723 0
DWIDTH 14 0
BBX 14 20 0 -5
BITMAP
0C60
0EE0
07C0
0000
7878
78F8
78F8
79F8
79F8
7B78
7F78
7E78
7E78
7C78
7878
0000
0000
0000
0000
0000
ENDCHAR

STARTCHAR afii10028
ENCODING 186
SWIDTH 723 0
DWIDTH 14 0
BBX 14 20 0 -5
BITMAP
0000
0000
0000
0000
3C78
3CF8
3CE0
3DC0
3F80
3FC0
3DE0
3CF0
3C70
3C78
3C38
0000
0000
0000
0000
0000
ENDCHAR

STARTCHAR afii10029
ENCODING 187
SWIDTH 723 0
DWIDTH 14 0
BBX 14 20 0 -5
BITMAP
0000
0000
0000
0000
3FF8
3FF8
3C78
3C78
3C78
3C78
3C78
3C78
3C78
FC78
F878
0000
0000
0000
0000
0000
ENDCHAR

STARTCHAR afii10030
ENCODING 188
SWIDTH 723 0
DWIDTH 14 0
BBX 14 20 0 -5
BITMAP
0000
0000
0000
0000
7038
7878
7878
7CF8
7CF8
77B8
7B78
7B78
7878
7878
7878
0000
0000
0000
0000
0000
ENDCHAR

STARTCHAR afii10031
ENCODING 189
SWIDTH 723 0
DWIDTH 14 0
BBX 14 20 0 -5
BITMAP
0000
0000
0000
0000
7878
7878
7878
7878
7FF8
7FF8
7878
7878
7878
7878
7878
0000
0000
0000
0000
0000
ENDCHAR

STARTCHAR afii10032
ENCODING 190
SWIDTH 723 0
DWIDTH 14 0
BBX 14 20 0 -5
BITMAP
0000
0000
0000
0000
0FC0
3FF0
3CF0
7878
7878
7878
7878
7878
3CF0
3FF0
0FC0
0000
0000
0000
0000
0000
ENDCHAR

STARTCHAR afii10033
ENCODING 191
SWIDTH 723 0
DWIDTH 14 0
BBX 14 20 0 -5
BITMAP
0000
0000
0000
0000
7FF8
7FF8
7878
7878
7878
7878
7878
7878
7878
7878
7878
0000
0000
0000
0000
0000
ENDCHAR

STARTCHAR afii10034
ENCODING 192
SWIDTH 723 0
DWIDTH 14 0
BBX 14 20 0 -5
BITMAP
0000
0000
0000
0000
7FE0
7FF8
7878
7878
7878
7FF8
7FE0
7800
7800
7E00
7E00
0000
0000
0000
0000
0000
ENDCHAR

STARTCHAR afii10035
ENCODING 193
SWIDTH 723 0
DWIDTH 14 0
BBX 14 20 0 -5
BITMAP
0000
0000
0000
0000
0FD8
3FF8
3C38
7838
7800
7800
7800
7800
3C38
3FF8
0FE0
0000
0000
0000
0000
0000
ENDCHAR

STARTCHAR afii10036
ENCODING 194
SWIDTH 723 0
DWIDTH 14 0
BBX 14 20 0 -5
BITMAP
0000
0000
0000
0000
7FF8
7FF8
6798
6798
0780
0780
0780
0780
0780
1FE0
1FE0
0000
0000
0000
0000
0000
ENDCHAR

STARTCHAR afii10037
ENCODING 195
SWIDTH 723 0
DWIDTH 14 0
BBX 14 20 0 -5
BITMAP
0000
0000
0000
0000
7878
7878
38F0
1CE0
1CE0
1DC0
0FC0
0F80
0700
1F00
1E00
0000
0000
0000
0000
0000
ENDCHAR

STARTCHAR afii10038
ENCODING 196
SWIDTH 723 0
DWIDTH 14 0
BBX 14 20 0 -5
BITMAP
0000
0000
0000
0000
1FE0
0780
3FF0
77B8
E79C
E79C
E79C
77B8
3FF0
0780
1FE0
0000
0000
0000
0000
0000
ENDCHAR

STARTCHAR afii10039
ENCODING 197
SWIDTH 723 0
DWIDTH 14 0
BBX 14 20 0 -5
BITMAP
0000
0000
0000
0000
7878
7878
3CF0
1FE0
0FC0
0780
0FC0
1FE0
3CF0
7878
7878
0000
0000
0000
0000
0000
ENDCHAR

STARTCHAR afii10040
ENCODING 198
SWIDTH 723 0
DWIDTH 14 0
BBX 14 20 0 -5
BITMAP
0000
0000
0000
0000
7878
7878
7878
7878
7878
7878
7878
7878
7878
7FF8
7FFC
001C
001C
001C
0000
0000
ENDCHAR

STARTCHAR afii10041
ENCODING 199
SWIDTH 723 0
DWIDTH 14 0
BBX 14 20 0 -5
BITMAP
0000
0000
0000
0000
78F0
78F0
78F0
78F0
79F0
7FF0
3EF0
00F0
00F0
00F0
00F0
0000
0000
0000
0000
0000
ENDCHAR

STARTCHAR afii10042
ENCODING 200
SWIDTH 723 0
DWIDTH 14 0
BBX 14 20 0 -5
BITMAP
0000
0000
0000
0000
E738
E738
E738
E738
E738
E738
E738
E738
E738
E738
FFF8
0000
0000
0000
0000
0000
ENDCHAR

STARTCHAR afii10043
ENCODING 201
SWIDTH 723 0
DWIDTH 14 0
BBX 14 20 0 -5
BITMAP
0000
0000
0000
0000
E738
E738
E738
E738
E738
E738
E738
E738
E738
E738
FFFC
001C
001C
001C
0000
0000
ENDCHAR

STARTCHAR afii10044
ENCODING 202
SWIDTH 723 0
DWIDTH 14 0
BBX 14 20 0 -5
BITMAP
0000
0000
0000
0000
FE00
FE00
1E00
1E00
1E00
1FF8
1E3C
1E3C
1E3C
1E3C
1FF8
0000
0000
0000
0000
0000
ENDCHAR

STARTCHAR afii10045
ENCODING 203
SWIDTH 723 0
DWIDTH 14 0
BBX 14 20 0 -5
BITMAP
0000
0000
0000
0000
F01C
F01C
F01C
F01C
F01C
FF9C
F3DC
F3DC
F3DC
F3DC
FF9C
0000
0000
0000
0000
0000
ENDCHAR

STARTCHAR afii10046
ENCODING 204
SWIDTH 723 0
DWIDTH 14 0
BBX 14 20 0 -5
BITMAP
0000
0000
0000
0000
7800
7800
7800
7800
7800
7FF0
7878
7878
7878
7878
7FF0
0000
0000
0000
0000
0000
ENDCHAR

STARTCHAR afii10047
ENCODING 205
SWIDTH 723 0
DWIDTH 14 0
BBX 14 20 0 -5
BITMAP
0000
0000
0000
0000
6FC0
7FF0
70F0
7078
03F8
03F8
0078
0078
70F0
7FF0
1FC0
0000
0000
0000
0000
0000
ENDCHAR

STARTCHAR afii10048
ENCODING 206
SWIDTH 723 0
DWIDTH 14 0
BBX 14 20 0 -5
BITMAP
0000
0000
0000
0000
E1F0
E3B8
E71C
E71C
E71C
FF1C
E71C
E71C
E71C
E3B8
E1F0
0000
0000
0000
0000
0000
ENDCHAR

STARTCHAR afii10049
ENCODING 207
SWIDTH 723 0
DWIDTH 14 0
BBX 14 20 0 -5
BITMAP
0000
0000
0000
0000
1FF8
3FF8
7878
7878
7878
3FF8
0FF8
1E78
1C78
7C78
7878
0000
0000
0000
0000
0000
ENDCHAR

STARTCHAR afii10065
ENCODING 208
SWIDTH 723 0
DWIDTH 14 0
BBX 14 20 0 -5
BITMAP
0000
0000
0000
0000
0000
0000
1FF0
3FF8
0078
3FF8
7FF8
7878
7878
7FF8
3F78
0000
0000
0000
0000
0000
ENDCHAR

STARTCHAR afii10066
ENCODING 209
SWIDTH 723 0
DWIDTH 14 0
BBX 14 20 0 -5
BITMAP
0000
0000
0020
0FE0
1FC0
3000
6FE0
7FF0
7878
7878
7878
7878
7878
3FF0
1FE0
0000
0000
0000
0000
0000
ENDCHAR

STARTCHAR afii10067
ENCODING 210
SWIDTH 723 0
DWIDTH 14 0
BBX 14 20 0 -5
BITMAP
0000
0000
0000
0000
0000
0000
3FF0
3FF8
3C78
3C78
3FF0
3C78
3C78
3FF8
3FF0
0000
0000
0000
0000
0000
ENDCHAR

STARTCHAR afii10068
ENCODING 211
SWIDTH 723 0
DWIDTH 14 0
BBX 14 20 0 -5
BITMAP
0000
0000
0000
0000
0000
0000
7FF8
7FF8
1E38
1E38
1E38
1E00
1E00
7F80
7F80
0000
0000
0000
0000
0000
ENDCHAR

STARTCHAR afii10069
ENCODING 212
SWIDTH 723 0
DWIDTH 14 0
BBX 14 20 0 -5
BITMAP
0000
0000
0000
0000
0000
0000
3FFC
3FFC
1C38
1C38
1C38
1C38
1C38
3FF8
FFFC
E01C
E01C
0000
0000
0000
ENDCHAR

STARTCHAR afii10070
ENCODING 213
SWIDTH 723 0
DWIDTH 14 0
BBX 14 20 0 -5
BITMAP
0000
0000
0000
0000
0000
0000
1FE0
3FF0
7878
7FF8
7FF8
7800
7838
3FF8
1FE0
0000
0000
0000
0000
0000
ENDCHAR

STARTCHAR afii10072
ENCODING 214
SWIDTH 723 0
DWIDTH 14 0
BBX 14 20 0 -5
BITMAP
0000
0000
0000
0000
0000
0000
E738
F778
3760
1FC0
1FC0
3FE0
7770
E738
E738
0000
0000
0000
0000
0000
ENDCHAR

STARTCHAR afii10073
ENCODING 215
SWIDTH 723 0
DWIDTH 14 0
BBX 14 20 0 -5
BITMAP
0000
0000
0000
0000
0000
0000
6FE0
7FF8
7078
67F8
07E0
0078
7078
7FF8
1FE0
0000
0000
0000
0000
0000
ENDCHAR

STARTCHAR afii10074
ENCODING 216
SWIDTH 723 0
DWIDTH 14 0
BBX 14 20 0 -5
BITMAP
0000
0000
0000
0000
0000
0000
7838
7878
78F8
79F8
7BF8
7F78
7E78
7C78
7878
0000
0000
0000
0000
0000
ENDCHAR

STARTCHAR afii10075
ENCODING 217
SWIDTH 723 0
DWIDTH 14 0
BBX 14 20 0 -5
BITMAP
0000
0000
0C60
0EE0
07C0
0000
7838
7878
78F8
79F8
7BF8
7F78
7E78
7C78
7878
0000
0000
0000
0000
0000
ENDCHAR

STARTCHAR afii10076
ENCODING 218
SWIDTH 723 0
DWIDTH 14 0
BBX 14 20 0 -5
BITMAP
0000
0000
0000
0000
0000
0000
78F0
79F0
79F0
7B80
7F00
7F80
7BE0
78F0
78F0
0000
0000
0000
0000
0000
ENDCHAR

STARTCHAR afii10077
ENCODING 219
SWIDTH 723 0
DWIDTH 14 0
BBX 14 20 0 -5
BITMAP
0000
0000
0000
0000
0000
0000
3FF8
3FF8
3C78
3C78
3C78
3C78
3C78
7C78
7878
0000
0000
0000
0000
0000
ENDCHAR

STARTCHAR afii10078
ENCODING 220
SWIDTH 723 0
DWIDTH 14 0
BBX 14 20 0 -5
BITMAP
0000
0000
0000
0000
0000
0000
7878
7878
7CF8
7CF8
7FF8
7B78
7B78
7B78
7878
0000
0000
0000
0000
0000
ENDCHAR

STARTCHAR afii10079
ENCODING 221
SWIDTH 723 0
DWIDTH 14 0
BBX 14 20 0 -5
BITMAP
0000
0000
0000
0000
0000
0000
7878
7878
7878
7FF8
7FF8
7878
7878
7878
7878
0000
0000
0000
0000
0000
ENDCHAR

STARTCHAR afii10080
ENCODING 222
SWIDTH 723 0
DWIDTH 14 0
BBX 14 20 0 -5
BITMAP
0000
0000
0000
0000
0000
0000
1FE0
3FF0
7878
7878
7878
7878
7878
3FF0
1FE0
0000
0000
0000
0000
0000
ENDCHAR

STARTCHAR afii10081
ENCODING 223
SWIDTH 723 0
DWIDTH 14 0
BBX 14 20 0 -5
BITMAP
0000
0000
0000
0000
0000
0000
0000
7FF8
7FF8
7878
7878
7878
7878
7878
7878
0000
0000
0000
0000
0000
ENDCHAR

STARTCHAR afii10082
ENCODING 224
SWIDTH 723 0
DWIDTH 14 0
BBX 14 20 0 -5
BITMAP
0000
0000
0000
0000
0000
0000
7BE0
7FF0
7C78
7878
7878
7878
7C78
7FF0
7BE0
7800
7800
FE00
FE00
0000
ENDCHAR

STARTCHAR afii10083
ENCODING 225
SWIDTH 723 0
DWIDTH 14 0
BBX 14 20 0 -5
BITMAP
0000
0000
0000
0000
0000
0000
1FD8
3FF8
7878
7838
7800
7800
7838
3FF8
1FE0
0000
0000
0000
0000
0000
ENDCHAR

STARTCHAR afii10084
ENCODING 226
SWIDTH 723 0
DWIDTH 14 0
BBX 14 20 0 -5
BITMAP
0000
0000
0000
0000
0000
0000
7FF8
7FF8
6798
6798
0780
0780
0780
1FE0
1FE0
0000
0000
0000
0000
0000
ENDCHAR

STARTCHAR afii10085
ENCODING 227
SWIDTH 723 0
DWIDTH 14 0
BBX 14 20 0 -5
BITMAP
0000
0000
0000
0000
0000
0000
7878
7878
3870
3CF0
1CE0
1CE0
0FC0
0FC0
0780
0780
0700
1E00
1C00
0000
ENDCHAR

STARTCHAR afii10086
ENCODING 228
SWIDTH 723 0
DWIDTH 14 0
BBX 14 20 0 -5
BITMAP
0000
0000
0000
0700
0700
0700
3FE0
7770
E738
E738
E738
E738
E738
7770
3FE0
0700
0700
0700
0000
0000
ENDCHAR

STARTCHAR afii10087
ENCODING 229
SWIDTH 723 0
DWIDTH 14 0
BBX 14 20 0 -5
BITMAP
0000
0000
0000
0000
0000
0000
7878
7CF8
1FE0
0FC0
0780
0FC0
1FE0
7CF8
7878
0000
0000
0000
0000
0000
ENDCHAR

STARTCHAR afii10088
ENCODING 230
SWIDTH 723 0
DWIDTH 14 0
BBX 14 20 0 -5
BITMAP
0000
0000
0000
0000
0000
0000
7878
7878
7878
7878
7878
7878
7878
7FFC
7FFC
001C
001C
0000
0000
0000
ENDCHAR

STARTCHAR afii10089
ENCODING 231
SWIDTH 723 0
DWIDTH 14 0
BBX 14 20 0 -5
BITMAP
0000
0000
0000
0000
0000
0000
7878
7878
7878
7878
7FF8
3FF8
0078
0078
0078
0000
0000
0000
0000
0000
ENDCHAR

STARTCHAR afii10090
ENCODING 232
SWIDTH 723 0
DWIDTH 14 0
BBX 14 20 0 -5
BITMAP
0000
0000
0000
0000
0000
0000
E738
E738
E738
E738
E738
E738
E738
FFF8
FFF8
0000
0000
0000
0000
0000
ENDCHAR

STARTCHAR afii10091
ENCODING 233
SWIDTH 723 0
DWIDTH 14 0
BBX 14 20 0 -5
BITMAP
0000
0000
0000
0000
0000
0000
E738
E738
E738
E738
E738
E738
E738
FFFC
FFFC
001C
001C
0000
0000
0000
ENDCHAR

STARTCHAR afii10092
ENCODING 234
SWIDTH 723 0
DWIDTH 14 0
BBX 14 20 0 -5
BITMAP
0000
0000
0000
0000
0000
0000
7F00
7F00
0F00
0F00
0FF8
0F3C
0F3C
0F3C
0FF8
0000
0000
0000
0000
0000
ENDCHAR

STARTCHAR afii10093
ENCODING 235
SWIDTH 723 0
DWIDTH 14 0
BBX 14 20 0 -5
BITMAP
0000
0000
0000
0000
0000
0000
F01C
F01C
F01C
F01C
FF9C
F3DC
F3DC
F3DC
FF9C
0000
0000
0000
0000
0000
ENDCHAR

STARTCHAR afii10094
ENCODING 236
SWIDTH 723 0
DWIDTH 14 0
BBX 14 20 0 -5
BITMAP
0000
0000
0000
0000
0000
0000
0000
7800
7800
7800
7FF0
7878
7878
7878
7FF0
0000
0000
0000
0000
0000
ENDCHAR

STARTCHAR afii10095
ENCODING 237
SWIDTH 723 0
DWIDTH 14 0
BBX 14 20 0 -5
BITMAP
0000
0000
0000
0000
0000
0000
6FE0
7FF0
7078
67F8
07F8
0078
7078
7FF0
1FE0
0000
0000
0000
0000
0000
ENDCHAR

STARTCHAR afii10096
ENCODING 238
SWIDTH 723 0
DWIDTH 14 0
BBX 14 20 0 -5
BITMAP
0000
0000
0000
0000
0000
0000
E3F0
E7F8
EF3C
EF3C
FF3C
FF3C
EF3C
E7F8
E3F0
0000
0000
0000
0000
0000
ENDCHAR

STARTCHAR afii10097
ENCODING 239
SWIDTH 723 0
DWIDTH 14 0
BBX 14 20 0 -5
BITMAP
0000
0000
0000
0000
0000
0000
0000
1FF8
3C78
3C78
3C78
0FF8
1E78
3C78
7878
0000
0000
0000
0000
0000
ENDCHAR

STARTCHAR afii61352
ENCODING 240
SWIDTH 723 0
DWIDTH 14 0
BBX 14 20 0 -5
BITMAP
0000
0000
0000
0000
E380
F3B8
F3EC
FBEC
FBEC
FFB8
EF80
EFFC
E780
E780
E380
0000
0000
0000
0000
0000
ENDCHAR

STARTCHAR afii10071
ENCODING 241
SWIDTH 723 0
DWIDTH 14 0
BBX 14 20 0 -5
BITMAP
0000
3030
7878
3030
0000
0000
1FE0
3FF0
7878
7FF8
7FF8
7800
7838
3FF8
1FE0
0000
0000
0000
0000
0000
ENDCHAR

STARTCHAR afii10099
ENCODING 242
SWIDTH 723 0
DWIDTH 14 0
BBX 14 20 0 -5
BITMAP
0000
0000
0000
7800
FF00
7800
7BE0
7FF0
7C78
7878
7878
7878
7878
7878
7878
0078
00F0
03F0
03C0
0000
ENDCHAR

STARTCHAR afii10100
ENCODING 243
SWIDTH 723 0
DWIDTH 14 0
BBX 14 20 0 -5
BITMAP
0000
0000
01E0
0780
1E00
0000
7FF8
7FF8
1E38
1E38
1E38
1E00
1E00
7F80
7F80
0000
0000
0000
0000
0000
ENDCHAR

STARTCHAR afii10101
ENCODING 244
SWIDTH 723 0
DWIDTH 14 0
BBX 14 20 0 -5
BITMAP
0000
0000
0000
0000
0000
0000
1FD8
3FF8
7838
7F98
7F80
7800
7838
3FF8
1FE0
0000
0000
0000
0000
0000
ENDCHAR

STARTCHAR afii10102
ENCODING 245
SWIDTH 723 0
DWIDTH 14 0
BBX 14 20 0 -5
BITMAP
0000
0000
0000
0000
0000
0000
3FD8
7FF8
7838
7F00
3FE0
03F8
6078
7FF8
7FF0
0000
0000
0000
0000
0000
ENDCHAR

STARTCHAR afii10103
ENCODING 246
SWIDTH 723 0
DWIDTH 14 0
BBX 14 20 0 -5
BITMAP
0000
0000
0780
0780
0780
0000
3F80
3F80
0780
0780
0780
0780
0780
7FF8
7FF8
0000
0000
0000
0000
0000
ENDCHAR

STARTCHAR afii10104
ENCODING 247
SWIDTH 723 0
DWIDTH 14 0
BBX 14 20 0 -5
BITMAP
0000
0000
3030
7878
3030
0000
3F80
3F80
0780
0780
0780
0780
0780
7FF8
7FF8
0000
0000
0000
0000
0000
ENDCHAR

STARTCHAR afii10105
ENCODING 248
SWIDTH 723 0
DWIDTH 14 0
BBX 14 20 0 -5
BITMAP
0000
0000
01E0
01E0
01E0
0000
0FE0
0FE0
01E0
01E0
01E0
01E0
01E0
01E0
01E0
01E0
01E0
1FE0
1F80
0000
ENDCHAR

STARTCHAR afii10106
ENCODING 249
SWIDTH 723 0
DWIDTH 14 0
BBX 14 20 0 -5
BITMAP
0000
0000
0000
0000
0000
0000
7F80
7F80
7380
7380
73F8
739C
739C
F39C
E3F8
0000
0000
0000
0000
0000
ENDCHAR

STARTCHAR afii10107
ENCODING 250
SWIDTH 723 0
DWIDTH 14 0
BBX 14 20 0 -5
BITMAP
0000
0000
0000
0000
0000
0000
7380
7380
7380
7380
7FF8
739C
739C
739C
73F8
0000
0000
0000
0000
0000
ENDCHAR

STARTCHAR afii10108
ENCODING 251
SWIDTH 723 0
DWIDTH 14 0
BBX 14 20 0 -5
BITMAP
0000
0000
0000
7800
FF00
7800
7BE0
7FF0
7C78
7878
7878
7878
7878
7878
7878
0000
0000
0000
0000
0000
ENDCHAR

STARTCHAR afii10109
ENCODING 252
SWIDTH 723 0
DWIDTH 14 0
BBX 14 20 0 -5
BITMAP
0000
0000
01E0
0780
1E00
0000
78F0
79F0
79F0
7B80
7F00
7F80
7BE0
78F0
78F0
0000
0000
0000
0000
0000
ENDCHAR

STARTCHAR section
ENCODING 253
SWIDTH 723 0
DWIDTH 14 0
BBX 14 20 0 -5
BITMAP
0000
0000
0000
0000
07F8
1FF8
1E18
1E00
3F80
7BE0
78F0
3C78
1F78
07F0
61E0
7FE0
7FC0
0000
0000
0000
ENDCHAR

STARTCHAR afii10110
ENCODING 254
SWIDTH 723 0
DWIDTH 14 0
BBX 14 20 0 -5
BITMAP
0000
0000
0C60
0EE0
07C0
0000
7878
7878
3870
3CF0
1CE0
1CE0
0FC0
0FC0
0780
0780
0700
1E00
1C00
0000
ENDCHAR

STARTCHAR afii10193
ENCODING 255
SWIDTH 723 0
DWIDTH 14 0
BBX 14 20 0 -5
BITMAP
0000
0000
0000
0000
0000
0000
0000
7878
7878
7878
7878
7878
7878
7FF8
7FF8
0300
0300
0300
0000
0000
ENDCHAR
ENDFONT
